<svg width="160" height="160" viewBox="0 0 160 160" fill="none" xmlns="http://www.w3.org/2000/svg">
<path d="M0.751953 155.388C0.270244 154.359 1.76605e-08 153.211 0 152V8C1.03084e-06 3.58172 3.58172 6.44257e-08 8 0H8.00098C3.58278 6.44245e-08 0.00110953 3.58184 0.000976562 8V36C5.52382 36 10.001 31.5228 10.001 26V10H26.001C31.5238 10 36.001 5.52285 36.001 0H52.001C52.001 5.52285 56.4781 10 62.001 10H98.001C103.524 10 108.001 5.52285 108.001 0H124.001C124.001 5.52285 128.478 10 134.001 10H150.001V26C150.001 31.5225 154.478 35.9985 160 35.999V52C154.478 52.0005 150.001 56.4776 150.001 62V98C150.001 103.523 154.478 107.998 160 107.999V124C154.478 124.001 150.001 128.478 150.001 134V150H134.001C128.478 150 124.001 154.477 124.001 160H108.001C108.001 154.477 103.524 150 98.001 150H62.001C56.4782 150 52.0011 154.477 52.001 160H36.001C36.0008 154.477 31.5237 150 26.001 150H10.001V134C10.0008 128.477 5.52374 124 0.000976562 124V152L0.0117188 152.412C0.0654719 153.471 0.325435 154.476 0.751953 155.388ZM0.000976562 108C5.52382 108 10.001 103.523 10.001 98V62C10.0008 56.4773 5.52374 52 0.000976562 52V108ZM152.443 0.0126953C152.789 0.0315553 153.128 0.073488 153.46 0.134766C153.128 0.0735389 152.789 0.031512 152.443 0.0126953ZM0.889648 155.665C0.842332 155.573 0.795791 155.481 0.751953 155.388C0.795775 155.481 0.842349 155.573 0.889648 155.665Z" fill="black"/>
<path d="M92.4409 87.4856C94.8642 96.2009 102.857 102.597 112.344 102.597C123.753 102.597 133.001 93.3485 133.001 81.9397C133.001 75.1712 129.747 69.1625 124.716 65.3948L92.4409 87.4856ZM35.1636 65.3108C30.0683 69.0728 26.7632 75.12 26.7632 81.9397C26.7632 93.3484 36.0117 102.597 47.4204 102.597C56.9579 102.597 64.9848 96.1335 67.3618 87.3479L35.1636 65.3108Z" fill="#00AF55"/>
<path d="M102.018 80.9309C102.008 81.1194 102.001 81.3092 102.001 81.5002C102.001 87.2992 106.702 92.0002 112.501 92.0002C118.3 92.0002 123.001 87.2992 123.001 81.5002C123.001 76.8419 119.967 72.8934 115.768 71.5198L102.018 80.9309ZM44.2358 71.5198C40.036 72.8931 37.0015 76.8416 37.0015 81.5002C37.0015 87.2992 41.7025 92.0002 47.5015 92.0002C53.3005 92.0002 58.0015 87.2992 58.0015 81.5002C58.0015 81.3092 57.9959 81.1194 57.9858 80.9309L44.2358 71.5198Z" fill="black"/>
<path d="M84.9009 99.0002C85.6533 103.464 82.0009 109.67 80.0015 113C78.0021 109.67 74.3496 103.464 75.102 99.0002C76.3515 99.7491 77.6342 100.452 78.9599 101.095L80.0015 101.599L81.043 101.095C82.3688 100.452 83.6514 99.7491 84.9009 99.0002Z" fill="#00AF55"/>
</svg>
